PathFileType	4	(X/Y/Z)	path1_17_0-570.trc
DataRate	CameraRate	NumFrames	NumMarkers	Units	OrigDataRate	OrigDataStartFrame	OrigNumFrames
30	30	5	22	m	30	0	570
Frame#	Time	Hip			RHip			RKnee			RAnkle			RBigToe			RSmallToe			RHeel			LHip			LKnee			LAnkle			LBigToe			LSmallToe			LHeel			Neck			Head			Nose			RShoulder			RElbow			RWrist			LShoulder			LElbow			LWrist		
		X1	Y1	Z1	X2	Y2	Z2	X3	Y3	Z3	X4	Y4	Z4	X5	Y5	Z5	X6	Y6	Z6	X7	Y7	Z7	X8	Y8	Z8	X9	Y9	Z9	X10	Y10	Z10	X11	Y11	Z11	X12	Y12	Z12	X13	Y13	Z13	X14	Y14	Z14	X15	Y15	Z15	X16	Y16	Z16	X17	Y17	Z17	X18	Y18	Z18	X19	Y19	Z19	X20	Y20	Z20	X21	Y21	Z21	X22	Y22	Z22
1	0.0333333333333333	2.5223710878857237	0.8268345965015117	0.6111393124850584	2.5266898764793138	0.809366856663131	0.5271417677447404	2.512336803681219	0.45484748118233964	0.5679562752709623	2.5477653832000176	0.10076515470567833	0.5729780374853426	2.354173960332501	0.021302973168393247	0.5578404778524186	2.3996786008821767	0.02018685605662567	0.49859136823687467	2.5864121050543285	0.03948024707265384	0.5655994168897343	2.5029018164773102	0.8028174482671253	0.6956248828382027	2.49510250621439	0.4387285586513389	0.678696277451373	2.550389673036332	0.08760548310198982	0.670816749269128	2.3693418852058845	0.014653439285154118	0.6915485397019874	2.4240333257060565	0.016317994900250647	0.7757155648365125	2.605635324199486	0.03264891432737251	0.6773513021260631	2.49373829288791	1.4717108396759546	0.6344394325012493	2.4519176759300434	1.7362177932464582	0.5722862077198423	2.3593171140464464	1.6058142524461592	0.5899058604902472	2.529855413711583	1.3714934847654132	0.45918603999881913	2.5410056911205086	1.0691155777095578	0.43573795286390754	2.4742935306835996	0.8349062870052363	0.4088054532439527	2.5085848333550564	1.3473945671507295	0.7713129781702903	2.503753112634678	1.0644405896696232	0.8317704841703047	2.4799030747895636	0.8256896520362442	0.8393930431367782
2	0.0666666666666666	2.520040679472599	0.8291272762954606	0.611617517042911	2.5228770051050113	0.8062176777437048	0.5295850214407141	2.5048230936411766	0.4575079931508123	0.5626441561271172	2.5504046941112954	0.0999940063958327	0.5759436620960299	2.3549607740761407	0.026811053650298997	0.5570915424733541	2.3968828771042463	0.022028130321079812	0.4988317249090377	2.591518793479552	0.038537734266636196	0.5711711836018832	2.502344783824145	0.8021217557025307	0.6954201133620439	2.497213126689062	0.4410188018481222	0.6822634284646736	2.5461900966715514	0.0932463137785418	0.6727250433473777	2.3709142841347743	0.01648352231938905	0.6901557025044024	2.4173023631983606	0.018507310067272197	0.763439985802834	2.5929497903761938	0.03763507527623018	0.6785983359549423	2.4920590581650828	1.4713362128638143	0.6327727533615586	2.4538739440973196	1.7311867658405884	0.5730557270263777	2.3589877613672026	1.6063664180825614	0.5931211076572117	2.5307333279389774	1.369989493214445	0.45708978651622995	2.5326282743570134	1.069800675223342	0.4253635109654996	2.4744632130327333	0.8380273227140302	0.4060585252481019	2.5006441281323846	1.3480817263754763	0.7751714883772373	2.5038795893287045	1.0655211325902214	0.8287753331609108	2.4782788782435152	0.8286105183961019	0.8362777418962964
3	0.1	2.5180031866428423	0.830998800741421	0.611943783586251	2.5196464050683645	0.8036533034246232	0.531444122397308	2.4992464847572844	0.4593949833725624	0.5588229560815882	2.552572035980349	0.09928253787124412	0.5783498594635459	2.3555890135100257	0.031205562921688135	0.5566434421348406	2.3946013810527114	0.02349892875169646	0.49918984791601567	2.5957413829695715	0.037822985983888474	0.5756672012614394	2.501781462561925	0.8014636911926	0.6951626908576728	2.4989255230432774	0.4428591732552114	0.6850011415053038	2.5426871704783425	0.09797819854422518	0.6743145899997127	2.3718800632901536	0.018010197360159907	0.6890409317293227	2.411334539847695	0.020735815393959876	0.7534797200461869	2.5827039620111822	0.04163633782095439	0.6795093120132875	2.49066183098085	1.471032329947711	0.6313067909222722	2.455465918015823	1.7270203466703782	0.5735968211399404	2.358721822705501	1.6068347923193351	0.5958157704730398	2.5313216684728945	1.368787673997884	0.4552824600767858	2.525252866297438	1.0705606516202677	0.41595772148164334	2.4745051678416505	0.8406588953724362	0.4036752444567918	2.4939617595949133	1.3486466217215947	0.7783533721608332	2.503820479628383	1.0663806930102435	0.8260705376524768	2.47690543490467	0.8309947371972654	0.8336146569905544
4	0.1333333333333333	2.5164778366959353	0.8322723868217146	0.6120989730440793	2.5173104864084648	0.8019472651370609	0.5325644346943743	2.4964486540358104	0.4602006701203677	0.5572442698427973	2.5539826246444726	0.09868784958794997	0.5799731214121313	2.356044719576059	0.033985650261151946	0.556646245677884	2.393139733103843	0.02438731611350469	0.499730231310289	2.5985533350471806	0.037475728969355554	0.5785030881270057	2.5013010832976095	0.800889080062162	0.6948980156310569	2.5000584373877643	0.44404950726187803	0.6867947836955179	2.539858060354632	0.10179340398055489	0.6756083282417582	2.3720735644241233	0.01886573739028076	0.6882692479505096	2.406311532971872	0.02295445972190309	0.7468153727460133	2.576012989468769	0.044204748118186636	0.6799919982874498	2.4896977253486954	1.47085057026967	0.6301994834129698	2.4565817109559394	1.7241335819618187	0.5737160006222217	2.3585364317160216	1.6071946847757257	0.5977785862726916	2.531578065715275	1.368050702903446	0.4540379665257124	2.519404507011454	1.071423712995418	0.4081153226270327	2.474363956113211	0.8426389413903412	0.4018546749006177	2.489284837947296	1.349042480386839	0.7803896889739149	2.503524399596491	1.0669116130006369	0.8238765224136696	2.475876593353558	0.8326060217355407	0.8316662842598472
5	0.1666666666666666	2.5155260169255937	0.8330075431184353	0.6121308297079089	2.5158194813701438	0.8010581459408338	0.5330742828569676	2.496200887448461	0.460034284902369	0.5578292718305696	2.5546267921354646	0.09823465195734932	0.5808925774353708	2.3564146781033397	0.03544423908498342	0.5569362309967808	2.3925919343345554	0.024675043214536223	0.5004414629104448	2.5999224126006886	0.037488010064621165	0.5796880713312378	2.500935702339534	0.800422529019439	0.6946087010378411	2.500629327378394	0.44462819829111605	0.6871664435485315	2.53739319832227	0.10512042603801684	0.6767673245820374	2.371761004032157	0.018952525480210716	0.6878376645655618	2.4020017921313297	0.02518664871868145	0.7431586030499941	2.572706957986901	0.045465269596450066	0.6801748303150804	2.4891394209047246	1.4707954722162073	0.6294950040997335	2.45729339379339	1.7224602942340976	0.5732314621934416	2.3583848419544244	1.607487874504233	0.5990670613691556	2.531658998066937	1.3677638455680021	0.45350891210939787	2.5153508432003404	1.0722384218468308	0.4023716079981092	2.4740723488274674	0.844057563090026	0.40059081172112343	2.486376717865056	1.3492618648905486	0.78146087312755	2.503075717056856	1.0671365854036354	0.8222878104067182	2.475126334165484	0.8335033601692753	0.8304512419007344
